<svg width="28" height="28" viewBox="0 0 28 28" fill="none" xmlns="http://www.w3.org/2000/svg">
<g filter="url(#filter0_d)">
<path d="M14 20C19.5228 20 24 15.5228 24 10C24 4.47715 19.5228 0 14 0C8.47715 0 4 4.47715 4 10C4 15.5228 8.47715 20 14 20Z" fill="#C93636"/>
<path d="M19.6719 14.125L15.5469 10L19.6562 5.875C19.7187 5.8125 19.7187 5.71875 19.6562 5.65625L18.3281 4.32813C18.2656 4.26562 18.1719 4.26562 18.1094 4.32813L14 8.45312L9.89062 4.34375C9.82812 4.28125 9.73437 4.28125 9.67187 4.34375L8.34375 5.67187C8.28125 5.73437 8.28125 5.82813 8.34375 5.89063L12.4375 10L8.32812 14.1094C8.26563 14.1719 8.26563 14.2656 8.32812 14.3281L9.65625 15.6562C9.71875 15.7188 9.82812 15.7188 9.875 15.6562L14 11.5469L18.1094 15.6562C18.1719 15.7188 18.2812 15.7188 18.3437 15.6719L19.6719 14.3438C19.7344 14.2813 19.7344 14.1875 19.6719 14.125Z" fill="white"/>
</g>
<defs>
<filter id="filter0_d" x="0" y="0" width="28" height="28" filterUnits="userSpaceOnUse" color-interpolation-filters="sRGB">
<feFlood flood-opacity="0" result="BackgroundImageFix"/>
<feColorMatrix in="SourceAlpha" type="matrix" values="0 0 0 0 0 0 0 0 0 0 0 0 0 0 0 0 0 0 127 0"/>
<feOffset dy="4"/>
<feGaussianBlur stdDeviation="2"/>
<feColorMatrix type="matrix" values="0 0 0 0 0 0 0 0 0 0 0 0 0 0 0 0 0 0 0.25 0"/>
<feBlend mode="normal" in2="BackgroundImageFix" result="effect1_dropShadow"/>
<feBlend mode="normal" in="SourceGraphic" in2="effect1_dropShadow" result="shape"/>
</filter>
</defs>
</svg>
