<svg width="35" height="35" viewBox="0 0 35 35" fill="none" xmlns="http://www.w3.org/2000/svg">
<path d="M17.5 34.248C8.64062 34.248 1.43555 27.2617 1.43555 18.6758C1.43555 12.6738 4.89453 7.30762 10.4658 4.66895C11.1631 4.34083 11.9971 4.63477 12.3252 5.33204C12.6533 6.0293 12.3594 6.86329 11.6621 7.19141C7.0752 9.36524 4.23145 13.7607 4.23145 18.6758C4.23145 25.7236 10.1855 31.459 17.5 31.459C24.8145 31.459 30.7686 25.7236 30.7686 18.6758C30.7686 13.7266 27.7607 9.18067 23.0986 7.08887C22.3945 6.77442 22.0801 5.94727 22.3945 5.24317C22.709 4.53907 23.5361 4.22461 24.2402 4.5459C29.9072 7.08204 33.5645 12.6328 33.5645 18.6758C33.5645 27.2617 26.3594 34.248 17.5 34.248Z" fill="#C93636"/>
<path d="M17.5 19.6807C16.7275 19.6807 16.1055 19.0586 16.1055 18.2861V2.14648C16.1055 1.37402 16.7344 0.751953 17.5 0.751953C18.2725 0.751953 18.8945 1.37402 18.8945 2.14648V18.2861C18.8945 19.0586 18.2725 19.6807 17.5 19.6807Z" fill="#C93636"/>
</svg>
