<svg width="161" height="19" viewBox="0 0 161 19" fill="none" xmlns="http://www.w3.org/2000/svg">
<path d="M0.72 10.632C0.72 9.512 0.96 8.376 1.44 7.224C1.92 6.056 2.6 4.976 3.48 3.984C4.36 2.992 5.504 2.184 6.912 1.56C8.336 0.919999 9.8 0.599999 11.304 0.599999C12.824 0.599999 14.008 0.879999 14.856 1.44C15.72 2 16.152 2.776 16.152 3.768C16.152 4.76 15.824 5.536 15.168 6.096C14.528 6.64 13.792 6.912 12.96 6.912C12.128 6.912 11.376 6.736 10.704 6.384C10.048 6.016 9.52 5.496 9.12 4.824C8.256 5.24 7.512 6.056 6.888 7.272C6.264 8.488 5.952 9.712 5.952 10.944C5.952 12.16 6.152 13.128 6.552 13.848C6.952 14.552 7.52 14.904 8.256 14.904C8.992 14.904 9.64 14.528 10.2 13.776C10.776 13.024 11.064 12.12 11.064 11.064C12.68 11.064 13.832 11.192 14.52 11.448C15.224 11.704 15.576 12.256 15.576 13.104C15.576 14.432 14.856 15.68 13.416 16.848C11.976 18.016 10.168 18.6 7.992 18.6C5.816 18.6 4.056 17.928 2.712 16.584C1.384 15.24 0.72 13.256 0.72 10.632ZM28.4068 14.904C28.4068 14.232 28.5188 13.128 28.7428 11.592H23.3188C23.1108 12.792 23.0068 13.616 23.0068 14.064C23.0068 15.616 23.2468 16.776 23.7268 17.544C22.7668 18.264 21.7668 18.624 20.7268 18.624C19.6868 18.624 18.9428 18.328 18.4948 17.736C18.0468 17.128 17.8228 16.232 17.8228 15.048C17.8228 13.848 18.3268 10.464 19.3348 4.896L18.0628 2.328C19.8708 1.16 21.5188 0.576 23.0068 0.576C24.2388 0.576 24.8548 1.328 24.8548 2.832C24.8548 3.28 24.5188 5.248 23.8468 8.736H29.2228C29.2868 8.336 29.5188 7.056 29.9188 4.896L28.6468 2.328C30.4548 1.16 32.1028 0.576 33.5908 0.576C34.8228 0.576 35.4388 1.328 35.4388 2.832C35.4388 3.328 35.1268 5.176 34.5028 8.376C33.8948 11.56 33.5908 13.456 33.5908 14.064C33.5908 15.616 33.8308 16.776 34.3108 17.544C33.3508 18.264 32.3508 18.624 31.3108 18.624C30.2708 18.624 29.5268 18.328 29.0788 17.736C28.6308 17.128 28.4068 16.184 28.4068 14.904ZM54.0441 17.544C53.0841 18.264 52.1401 18.624 51.2121 18.624C50.2841 18.624 49.5481 18.384 49.0041 17.904C48.4601 17.424 48.1881 16.704 48.1881 15.744C48.1881 15.472 48.1961 15.264 48.2121 15.12L47.9721 15.048C46.3881 17.416 44.2601 18.6 41.5881 18.6C39.0121 18.6 37.7241 17.24 37.7241 14.52C37.7241 13.608 37.8521 12.4 38.1081 10.896C38.3641 9.376 38.5801 8.096 38.7561 7.056C38.9481 6 39.0761 5.28 39.1401 4.896L37.8681 2.328C38.8761 1.752 39.7481 1.32 40.4841 1.032C41.2361 0.743999 41.9881 0.599999 42.7401 0.599999C43.4921 0.599999 43.9961 0.799999 44.2521 1.2C44.5241 1.584 44.6601 2.048 44.6601 2.592C44.6601 3.136 44.3881 4.88 43.8441 7.824C43.3161 10.768 43.0521 12.488 43.0521 12.984C43.0521 14.248 43.4841 14.88 44.3481 14.88C44.9881 14.88 45.7161 14.472 46.5321 13.656C47.3481 12.84 48.0121 11.72 48.5241 10.296C48.1881 9.32 48.0201 8.312 48.0201 7.272C48.0201 5.416 48.4761 3.84 49.3881 2.544C50.3161 1.248 51.6201 0.599999 53.3001 0.599999C54.2281 0.599999 54.9721 0.751999 55.5321 1.056C55.3881 1.92 55.1081 3.488 54.6921 5.76C53.7801 10.576 53.3241 13.344 53.3241 14.064C53.3241 15.616 53.5641 16.776 54.0441 17.544ZM64.0796 10.176L64.0076 14.208H64.6316C65.5276 12.304 66.3516 10.272 67.1036 8.112C67.8556 5.936 68.2316 4.28 68.2316 3.144C68.2316 2.696 68.1436 2.264 67.9676 1.848C69.1836 1.016 70.3036 0.599999 71.3276 0.599999C72.9276 0.599999 73.7276 1.504 73.7276 3.312C73.7276 4.208 73.4796 5.344 72.9836 6.72C72.5036 8.08 71.7836 9.792 70.8236 11.856C69.8636 13.904 69.3516 15.008 69.2876 15.168L69.6236 16.488C68.8876 17.08 67.9436 17.584 66.7916 18C65.6396 18.4 64.3676 18.6 62.9756 18.6C61.5836 18.6 60.5516 18.376 59.8796 17.928C59.2076 17.48 58.8716 16.728 58.8716 15.672L58.8956 11.256C58.8956 7.592 58.4476 5.008 57.5516 3.504C57.1356 2.816 56.6236 2.264 56.0156 1.848C57.1036 1.016 58.3516 0.599999 59.7596 0.599999C61.0396 0.599999 61.9916 1.104 62.6156 2.112C63.2396 3.104 63.6476 4.296 63.8396 5.688C63.9996 6.952 64.0796 8.448 64.0796 10.176ZM88.7166 4.128L88.5246 9.84C88.5246 11.808 88.6846 13.464 89.0046 14.808C89.3406 16.152 89.9566 17.08 90.8526 17.592C89.7486 18.28 88.6286 18.624 87.4926 18.624C85.4926 18.624 84.2606 17.008 83.7966 13.776H78.9006C78.5966 14.816 78.4446 15.616 78.4446 16.176C78.4446 16.72 78.5086 17.16 78.6366 17.496C77.4526 18.248 76.3966 18.624 75.4686 18.624C74.0446 18.624 73.3326 17.76 73.3326 16.032C73.3326 15.168 73.5966 14.08 74.1246 12.768C74.6686 11.456 75.3806 9.952 76.2606 8.256C77.1566 6.56 77.7246 5.44 77.9646 4.896C77.7886 4.032 77.5886 3.184 77.3646 2.352C78.1966 1.776 78.9966 1.344 79.7646 1.056C80.5486 0.751999 81.3886 0.599999 82.2846 0.599999C83.1966 0.599999 83.8286 0.799999 84.1806 1.2C85.0926 0.799999 85.8446 0.599999 86.4366 0.599999C87.0286 0.599999 87.4686 0.695999 87.7566 0.887999C88.0446 1.08 88.2526 1.36 88.3806 1.728C88.6046 2.368 88.7166 3.168 88.7166 4.128ZM83.8926 4.68H83.1246C81.6846 7.464 80.6126 9.656 79.9086 11.256H83.6286C83.6286 9.512 83.7166 7.32 83.8926 4.68ZM109.157 1.2V1.92H103.517V18H102.797V1.92H97.1569V1.2H109.157ZM121.235 16.44C120.355 17.64 118.931 18.24 116.963 18.24C114.995 18.24 113.571 17.64 112.691 16.44C111.811 15.224 111.371 13.336 111.371 10.776V8.424C111.371 5.864 111.811 3.984 112.691 2.784C113.571 1.568 114.995 0.959999 116.963 0.959999C118.931 0.959999 120.355 1.568 121.235 2.784C122.115 3.984 122.555 5.864 122.555 8.424V10.776C122.555 13.336 122.115 15.224 121.235 16.44ZM118.979 1.992C118.419 1.784 117.747 1.68 116.963 1.68C116.179 1.68 115.507 1.784 114.947 1.992C114.387 2.184 113.883 2.52 113.435 3C112.987 3.48 112.651 4.176 112.427 5.088C112.203 5.984 112.091 7.096 112.091 8.424V10.776C112.091 12.104 112.203 13.224 112.427 14.136C112.651 15.032 112.987 15.72 113.435 16.2C113.883 16.68 114.387 17.024 114.947 17.232C115.507 17.424 116.179 17.52 116.963 17.52C117.747 17.52 118.419 17.424 118.979 17.232C119.539 17.024 120.043 16.68 120.491 16.2C120.939 15.72 121.275 15.032 121.499 14.136C121.723 13.224 121.835 12.104 121.835 10.776V8.424C121.835 7.096 121.723 5.984 121.499 5.088C121.275 4.176 120.939 3.48 120.491 3C120.043 2.52 119.539 2.184 118.979 1.992ZM126.398 12.36V11.64H131.15V12.36H126.398ZM137.828 18H135.524V1.2H137.828C140.132 1.2 142.084 2.048 143.684 3.744C145.284 5.44 146.084 7.392 146.084 9.6C146.084 11.808 145.284 13.76 143.684 15.456C142.084 17.152 140.132 18 137.828 18ZM137.828 17.28C139.924 17.28 141.7 16.512 143.156 14.976C144.628 13.424 145.364 11.632 145.364 9.6C145.364 7.568 144.628 5.784 143.156 4.248C141.7 2.696 139.924 1.92 137.828 1.92H136.244V17.28H137.828ZM159.087 16.44C158.207 17.64 156.783 18.24 154.815 18.24C152.847 18.24 151.423 17.64 150.543 16.44C149.663 15.224 149.223 13.336 149.223 10.776V8.424C149.223 5.864 149.663 3.984 150.543 2.784C151.423 1.568 152.847 0.959999 154.815 0.959999C156.783 0.959999 158.207 1.568 159.087 2.784C159.967 3.984 160.407 5.864 160.407 8.424V10.776C160.407 13.336 159.967 15.224 159.087 16.44ZM156.831 1.992C156.271 1.784 155.599 1.68 154.815 1.68C154.031 1.68 153.359 1.784 152.799 1.992C152.239 2.184 151.735 2.52 151.287 3C150.839 3.48 150.503 4.176 150.279 5.088C150.055 5.984 149.943 7.096 149.943 8.424V10.776C149.943 12.104 150.055 13.224 150.279 14.136C150.503 15.032 150.839 15.72 151.287 16.2C151.735 16.68 152.239 17.024 152.799 17.232C153.359 17.424 154.031 17.52 154.815 17.52C155.599 17.52 156.271 17.424 156.831 17.232C157.391 17.024 157.895 16.68 158.343 16.2C158.791 15.72 159.127 15.032 159.351 14.136C159.575 13.224 159.687 12.104 159.687 10.776V8.424C159.687 7.096 159.575 5.984 159.351 5.088C159.127 4.176 158.791 3.48 158.343 3C157.895 2.52 157.391 2.184 156.831 1.992Z" fill="#F6A23F"/>
</svg>
